<?xml version="1.0" encoding="utf-8"?>
<!-- Generator: Adobe Illustrator 26.3.1, SVG Export Plug-In . SVG Version: 6.00 Build 0)  -->
<svg version="1.1" id="Шар_1" xmlns="http://www.w3.org/2000/svg" xmlns:xlink="http://www.w3.org/1999/xlink" x="0px" y="0px"
	 viewBox="0 0 841.89 1190.55" style="enable-background:new 0 0 841.89 1190.55;" xml:space="preserve">
<style type="text/css">
	.st0{fill:#FFFFFF;}
</style>
<g>
	<g>
		<path class="st0" d="M546,315.25c-52.94-91.68-185.25-91.68-238.15,0l-85.66,148.36l30.01-16.44
			c26.74-14.71,59.39,5.15,58.68,35.67l-0.67,28.87l43.03-74.49c32.72-56.72,114.61-56.72,147.37,0l31.31,54.24l35.44,23.09
			c21.99,14.36,51.33-0.47,52.74-26.74l2.2-40.43L546,315.25z"/>
		<path class="st0" d="M399.44,732.39l29.81-16.4h-92.03c-65.49,0-106.43-70.91-73.67-127.63l16.83-29.14l0.87-39.17
			c0.59-26.27-27.45-43.38-50.5-30.72l-37.76,20.65l-58.05,100.57C82,702.18,148.16,816.79,254,816.79H424.1l-26.04-15.73
			C371.91,785.29,372.7,747.14,399.44,732.39z"/>
		<path class="st0" d="M718.9,610.54l-68-117.76l-1.77,32.96c-1.61,30.48-35.67,47.71-61.24,31.03l-25.45-16.6l27.81,48.18
			c32.76,56.71-8.18,127.63-73.67,127.63h-27.73l-38.74,21.36c-23.01,12.66-23.72,45.51-1.22,59.07l33.71,20.37h117.21
			C705.65,816.79,771.8,702.18,718.9,610.54z"/>
	</g>
</g>
</svg>
