<?xml version="1.0" encoding="utf-8"?>
<!-- Generator: Adobe Illustrator 26.3.1, SVG Export Plug-In . SVG Version: 6.00 Build 0)  -->
<svg version="1.1" id="Шар_1" xmlns="http://www.w3.org/2000/svg" xmlns:xlink="http://www.w3.org/1999/xlink" x="0px" y="0px"
	 viewBox="0 0 1190.55 841.89" style="enable-background:new 0 0 1190.55 841.89;" xml:space="preserve">
<style type="text/css">
	.st0{fill:#003B58;}
	.st1{fill:#8DE4AF;}
</style>
<g>
	<g>
		<path class="st0" d="M93.37,444.41h67.98v18.76H71V342.71h87.94v18.76H93.37V444.41z M91.65,392.79h59.89v18.41H91.65V392.79z"/>
		<path class="st0" d="M242.06,464.89c-9.18,0-17.7-1.52-25.56-4.56c-7.86-3.04-14.69-7.34-20.48-12.91
			c-5.79-5.56-10.3-12.13-13.51-19.7c-3.21-7.57-4.82-15.83-4.82-24.78s1.61-17.21,4.82-24.78c3.21-7.57,7.74-14.14,13.6-19.7
			c5.85-5.56,12.68-9.87,20.48-12.91c7.8-3.04,16.35-4.56,25.64-4.56c9.87,0,18.87,1.69,27.02,5.08
			c8.14,3.39,15.03,8.41,20.65,15.06l-14.46,13.6c-4.36-4.7-9.24-8.23-14.63-10.58c-5.39-2.35-11.25-3.53-17.55-3.53
			c-6.31,0-12.08,1.03-17.3,3.1c-5.22,2.07-9.75,4.99-13.59,8.78c-3.85,3.79-6.83,8.26-8.95,13.42c-2.12,5.16-3.18,10.84-3.18,17.04
			s1.06,11.87,3.18,17.04c2.12,5.16,5.1,9.64,8.95,13.42c3.84,3.79,8.37,6.71,13.59,8.78c5.22,2.07,10.98,3.1,17.3,3.1
			c6.31,0,12.16-1.17,17.55-3.53c5.39-2.35,10.27-5.94,14.63-10.76l14.46,13.77c-5.62,6.54-12.51,11.53-20.65,14.97
			C261.1,463.17,252.04,464.89,242.06,464.89z"/>
		<path class="st0" d="M476.1,463.17h-22.37V342.71h87.94v18.76H476.1V463.17z M474.21,398.12h60.06v18.93h-60.06V398.12z"/>
		<path class="st0" d="M563.35,463.17V342.71h22.37v120.46H563.35z"/>
		<path class="st0" d="M618.25,463.17V342.71h18.42l75.55,92.76h-9.12v-92.76h22.2v120.46h-18.42l-75.55-92.76h9.12v92.76H618.25z"
			/>
		<path class="st0" d="M757.64,463.17V342.71h52.66c13.08,0,24.55,2.52,34.42,7.57c9.87,5.05,17.55,12.05,23.06,21
			c5.51,8.95,8.26,19.51,8.26,31.66c0,12.05-2.75,22.57-8.26,31.58c-5.51,9.01-13.19,16.03-23.06,21.08
			c-9.87,5.05-21.34,7.57-34.42,7.57H757.64z M780.02,444.24h29.26c9.06,0,16.89-1.72,23.49-5.16c6.59-3.44,11.7-8.26,15.32-14.46
			c3.61-6.2,5.42-13.42,5.42-21.68c0-8.37-1.81-15.63-5.42-21.77c-3.61-6.14-8.72-10.93-15.32-14.37
			c-6.6-3.44-14.43-5.16-23.49-5.16h-29.26V444.24z"/>
		<path class="st0" d="M922.16,444.41h67.98v18.76h-90.35V342.71h87.94v18.76h-65.57V444.41z M920.44,392.79h59.89v18.41h-59.89
			V392.79z"/>
		<path class="st0" d="M1015.09,463.17V342.71h49.56c10.67,0,19.82,1.72,27.45,5.16c7.63,3.44,13.51,8.38,17.64,14.8
			c4.13,6.43,6.2,14.06,6.2,22.89c0,8.84-2.07,16.43-6.2,22.8c-4.13,6.37-10.01,11.25-17.64,14.63c-7.63,3.39-16.78,5.08-27.45,5.08
			h-37.17l9.98-10.15v45.26H1015.09z M1037.46,420.32l-9.98-10.67h36.14c9.87,0,17.29-2.12,22.28-6.37
			c4.99-4.24,7.49-10.15,7.49-17.72c0-7.69-2.5-13.6-7.49-17.73c-4.99-4.13-12.42-6.19-22.28-6.19h-36.14l9.98-11.01V420.32z
			 M1093.91,463.17l-30.46-43.71h23.92l30.63,43.71H1093.91z"/>
	</g>
</g>
<g>
	<path class="st1" d="M395.26,355.35c-11.38-19.71-39.83-19.71-51.2,0l-18.42,31.89l6.45-3.53c5.75-3.16,12.77,1.11,12.62,7.67
		l-0.14,6.21l9.25-16.01c7.04-12.19,24.64-12.19,31.68,0l6.73,11.66l7.62,4.96c4.73,3.09,11.03-0.1,11.34-5.75l0.47-8.69
		L395.26,355.35z"/>
	<path class="st1" d="M363.75,445.03l6.41-3.53h-19.79c-14.08,0-22.88-15.25-15.84-27.44l3.62-6.27l0.19-8.42
		c0.13-5.65-5.9-9.33-10.86-6.6l-8.12,4.44l-12.48,21.62c-11.38,19.7,2.84,44.34,25.6,44.34h36.57l-5.6-3.38
		C357.84,456.4,358,448.2,363.75,445.03z"/>
	<path class="st1" d="M432.43,418.83l-14.62-25.32l-0.38,7.09c-0.35,6.55-7.67,10.26-13.17,6.67l-5.47-3.57l5.98,10.36
		c7.04,12.19-1.76,27.44-15.84,27.44h-5.96l-8.33,4.59c-4.95,2.72-5.1,9.78-0.26,12.7l7.25,4.38h25.2
		C429.59,463.17,443.81,438.53,432.43,418.83z"/>
</g>
</svg>
