<svg xmlns="http://www.w3.org/2000/svg" id="layer-1" x="0" y="0" version="1.1" viewBox="0 0 1190 842">
  <style>
    .st0 {
      fill: #003b58
    }

    .st1 {
      fill: #8de4af
    }
  </style>
  <path d="M93.4 444.4h68v18.8H71V342.7h88v18.8H93.3v83zm-1.8-51.6h60v18.4h-60v-18.4zM242 464.9c-9.1 0-17.6-1.5-25.5-4.6a60.8 60.8 0 0 1-34-32.6c-3.2-7.6-4.8-15.8-4.8-24.8s1.6-17.2 4.8-24.7a58.1 58.1 0 0 1 13.6-19.7 62.2 62.2 0 0 1 20.5-13 70 70 0 0 1 25.6-4.5c9.9 0 18.9 1.7 27 5 8.2 3.5 15 8.5 20.7 15.1l-14.5 13.6a43.5 43.5 0 0 0-32.2-14.1c-6.3 0-12 1-17.2 3.1a40.2 40.2 0 0 0-25.8 39.3c0 6.2 1.1 11.8 3.2 17a39.7 39.7 0 0 0 22.6 22.2 46.5 46.5 0 0 0 34.8-.4c5.4-2.4 10.3-6 14.6-10.8l14.5 13.8a55.1 55.1 0 0 1-20.6 15 69.6 69.6 0 0 1-27.2 5zM476.1 463.2h-22.4V342.7h88v18.8H476v101.7zm-1.9-65h60V417h-60v-19zM563.4 463.2V342.7h22.3v120.5h-22.4zM618.3 463.2V342.7h18.4l75.5 92.8h-9.1v-92.8h22.2v120.5h-18.4l-75.6-92.8h9.2v92.8h-22.3zM757.6 463.2V342.7h52.7c13 0 24.6 2.5 34.4 7.6 9.9 5 17.6 12 23 21 5.6 9 8.3 19.5 8.3 31.6 0 12-2.7 22.6-8.2 31.6-5.5 9-13.2 16-23 21.1-10 5-21.4 7.6-34.5 7.6h-52.7zm22.4-19h29.3c9 0 16.9-1.7 23.5-5.1a37.3 37.3 0 0 0 15.3-14.5 42.3 42.3 0 0 0 5.4-21.7c0-8.3-1.8-15.6-5.4-21.7-3.6-6.2-8.7-11-15.3-14.4a50.2 50.2 0 0 0-23.5-5.2H780v82.6zM922.2 444.4h68v18.8h-90.4V342.7h88v18.8h-65.6v83zm-1.8-51.6h60v18.4h-60v-18.4zM1015 463.2V342.7h49.7c10.6 0 19.8 1.7 27.4 5.2a39.8 39.8 0 0 1 17.6 14.8c4.2 6.4 6.2 14 6.2 22.9a41 41 0 0 1-6.2 22.8 39.4 39.4 0 0 1-17.6 14.6c-7.6 3.4-16.8 5-27.4 5h-37.2l10-10v45.2H1015zm22.5-42.9-10-10.7h36.1c9.9 0 17.3-2 22.3-6.3a22 22 0 0 0 7.5-17.7c0-7.7-2.5-13.6-7.5-17.8-5-4.1-12.4-6.2-22.3-6.2h-36.1l10-11v69.7zm56.4 42.9-30.5-43.7h24l30.6 43.7h-24z" class="st0" />
  <path d="M395.3 355.4a29.6 29.6 0 0 0-51.2 0l-18.5 31.8 6.5-3.5a8.5 8.5 0 0 1 12.6 7.7l-.1 6.2 9.2-16a18.3 18.3 0 0 1 31.7 0l6.7 11.6 7.7 5c4.7 3 11-.1 11.3-5.7l.5-8.7-16.4-28.4z" class="st1" />
  <path d="m363.8 445 6.4-3.5h-19.8c-14.1 0-23-15.3-15.9-27.4l3.7-6.3.1-8.4a7.3 7.3 0 0 0-10.8-6.6l-8.1 4.4-12.5 21.6a29.6 29.6 0 0 0 25.6 44.4H369l-5.7-3.4a8.5 8.5 0 0 1 .4-14.8z" class="st1" />
  <path d="m432.4 418.8-14.6-25.3-.4 7.1a8.5 8.5 0 0 1-13.1 6.7l-5.5-3.6 6 10.4c7 12.1-1.8 27.4-15.9 27.4h-6l-8.3 4.6a7.3 7.3 0 0 0-.2 12.7l7.2 4.4h25.2c22.8 0 37-24.7 25.6-44.4z" class="st1" />
</svg>
