<?xml version="1.0" encoding="UTF-8"?>
<svg xmlns="http://www.w3.org/2000/svg" xmlns:xlink="http://www.w3.org/1999/xlink" width="30px" height="30px" viewBox="0 0 30 30" version="1.1">
<g id="surface1">
<path style=" stroke:#ffffff ;fill-rule:evenodd;fill:#ffffff;fill-opacity:1;" d="M 15 0 C 23.277344 0 30 6.722656 30 15 C 30 23.277344 23.277344 30 15 30 C 6.722656 30 0 23.277344 0 15 C 0 6.722656 6.722656 0 15 0 Z M 15 1.25 C 22.589844 1.25 28.75 7.410156 28.75 15 C 28.75 22.589844 22.589844 28.75 15 28.75 C 7.410156 28.75 1.25 22.589844 1.25 15 C 1.25 7.410156 7.410156 1.25 15 1.25 Z M 11.25 8.441406 L 19.300781 15 L 11.25 21.578125 L 12.097656 22.5 L 21.25 15 L 12.082031 7.5 Z M 11.25 8.441406 "/>
</g>
</svg>
